<svg width="72" height="40" viewBox="0 0 72 40" fill="none" xmlns="http://www.w3.org/2000/svg">
<path d="M10.5 25.5C10.5 22.7345 12.7345 20.5 15.5 20.5C18.2655 20.5 20.5 22.7345 20.5 25.5C20.5 28.2655 18.2655 30.5 15.5 30.5C12.7345 30.5 10.5 28.2655 10.5 25.5Z" stroke="#878787"/>
<path d="M68.8247 23.5053C66.8295 22.1104 61.3029 18.685 54.7346 18.4024C54.7346 18.4024 37.8899 8.49695 3.60033 18.4024L4.53615 20.3977L4.44786 22.6754H3V23.3287L3.30017 24.3705V25.6947C3.30017 25.6947 5.84275 28.3432 10.151 28.149C10.151 28.149 8.45597 19.9739 15.5717 19.6031C21.575 19.2853 22.0517 26.5246 20.7804 28.1667H51.5387C51.5387 28.1667 48.9431 20.9097 55.9352 19.9916C55.9352 19.9916 63.0686 19.815 60.9145 28.1667H67.5888C68.4363 28.1667 68.9483 27.2132 68.4716 26.5069L68.3127 26.2597L69.1072 24.9178C69.4074 24.4411 69.2662 23.8231 68.8247 23.5053ZM48.4311 19.6914C40.1853 19.1793 21.9281 16.9546 22.0694 16.8663C22.2107 16.778 28.108 15.1536 28.108 15.1536C43.3106 13.5468 53.1808 18.8792 53.1808 18.8792L48.4311 19.6914Z" fill="#F6F6F6"/>
<path d="M50.5 25.5C50.5 22.7345 52.7345 20.5 55.5 20.5C58.2655 20.5 60.5 22.7345 60.5 25.5C60.5 28.2655 58.2655 30.5 55.5 30.5C52.7345 30.5 50.5 28.2655 50.5 25.5Z" stroke="#878787"/>
<path d="M10.151 28.149C5.84275 28.3432 3.30017 25.6947 3.30017 25.6947V24.3705L3 23.3287V22.6754H4.44786L4.53615 20.3977L3.60033 18.4024C37.8899 8.49695 54.7346 18.4024 54.7346 18.4024C61.3029 18.685 66.8295 22.1104 68.8247 23.5053C69.2662 23.8231 69.4074 24.4411 69.1072 24.9178L68.3127 26.2597L68.4716 26.5069C68.9483 27.2132 68.4363 28.1667 67.5888 28.1667H62.9145M22.7804 28.1667H36.1596H49.5387" stroke="#878787"/>
</svg>
