<svg width="59" height="40" viewBox="0 0 59 40" fill="none" xmlns="http://www.w3.org/2000/svg">
<path d="M52.4456 23.5789H55.7263C55.2245 22.421 54.7228 21.6491 54.7228 21.6491L42.1789 20.1053L39.0912 15.3193C37.7789 13.2351 35.5017 12 33.0316 12H26.9333C21.0666 12 15.7403 15.0877 12.6526 19.7193H2V23.5789H4.31579V26.2807H2V26.2421C2 28.0561 3.50526 29.3684 5.3193 29.3684H10.3368C10.3368 26.6667 12.7298 24.0035 15.7017 24.0035C18.6351 24.0035 21.0281 26.6667 21.0281 29.3684H35.6561C35.6561 26.6667 38.0491 24.0035 40.9824 24.0035C43.9158 24.0035 46.3087 26.6667 46.3087 29.3684H54.607C55.8035 29.3684 56.7298 28.4807 56.7298 27.3228V27.4386C56.7298 27.0526 56.6526 26.6667 56.5368 26.2807H54.1052L52.4456 23.5789ZM36.5438 16.9403L38.3579 19.7193H29.0175V15.0877H33.0316C34.4596 15.0877 35.7719 15.7439 36.5438 16.9403ZM25.9298 15.0877V19.7193H16.4737C18.8281 17.0175 22.0702 15.3965 25.9298 15.0877Z" fill="#F6F6F6"/>
<path d="M11 29.5C11 27.0143 13.0143 25 15.5 25C17.9857 25 19.9571 27.0143 20 29.5C20 31.9857 17.9857 34 15.5 34C13.0143 34 11 31.9857 11 29.5Z" stroke="#878787" stroke-miterlimit="10"/>
<path d="M36 29.5C36 27.0143 38.0143 25 40.5 25C42.9857 25 44.9571 27.0143 45 29.5C45 31.9857 42.9857 34 40.5 34C38.0143 34 36 31.9857 36 29.5Z" stroke="#878787" stroke-miterlimit="10"/>
<path d="M10.3368 29.3684H5.3193C3.50526 29.3684 2 28.0561 2 26.2421V26.2807V23.5789V19.7193H12.6526C15.7403 15.0877 21.0666 12 26.9333 12H33.0316C35.5017 12 37.7789 13.2351 39.0912 15.3193L42.1789 20.1053L54.7228 21.6491C55.8387 23.366 56.207 25.3723 56.7298 27.3228C56.7298 28.4807 55.8035 29.3684 54.607 29.3684H46.3087M22.0281 29.3684H34.6561" stroke="#878787"/>
</svg>
