<svg width="51" height="41" viewBox="0 0 51 41" fill="none" xmlns="http://www.w3.org/2000/svg">
<path fill-rule="evenodd" clip-rule="evenodd" d="M1.09046 28.0731C0.939693 27.4599 1.03016 26.4788 1 25.8349C0.969845 25.0377 1.30154 25.3137 1.60308 25.0991C1.66338 23.9953 1.60307 22.125 1.72369 20.9906C1.87446 19.6722 2.23631 19.4882 3.68369 19.4882L20.8714 19.5189C21.2935 19.5189 21.4745 19.4575 21.5649 19.3656C21.8665 19.1509 22.0474 16.6368 22.3791 15.1651C22.5902 14.3986 22.5902 14 23.4345 14H31.1237C32.2695 14 33.4154 14.5519 34.3803 15.3491L38.7828 18.967C42.0695 19.2736 45.5071 19.8255 48.1606 20.5307C49.0049 20.7453 49.3366 21.1439 49.3366 22.0943L49.3065 25.2524C49.4271 25.2524 49.5778 25.283 49.6985 25.3443C49.9698 25.4363 49.9698 25.5283 50 25.7736C50 25.9882 50 26.2335 50 26.3561C50 26.8467 49.9397 28.2877 49.5778 28.5637C49.3969 28.6863 49.1255 28.809 48.8542 28.809L48.0702 28.8396H46.9846C45.5674 26.5401 43.0646 24.9764 40.2 24.9764C37.3052 24.9764 34.7723 26.5401 33.3852 28.8703H29.1034V29.2075L32.6314 30.4646L32.3298 31.3231L28.6511 30.0047H24.52L19.4843 31.8137L19.1828 30.9552L24.2486 29.1462V28.8703H18.3083C16.9212 26.5094 14.3582 24.9151 11.4332 24.9151C8.50831 24.9151 5.94523 26.5094 4.55816 28.9009H4.16615C3.47261 28.9316 1.30154 28.809 1.09046 28.0731ZM34.9532 19.6108C35.1184 19.6108 36.3615 18.5755 36.4308 18.5377C36.5 18.5 33.7772 16.1156 33.7772 16.1156C33.4154 15.7783 33.144 15.625 32.6917 15.4104C32.0283 15.1038 31.4855 14.9198 30.8825 14.9198H27.0529C26.7815 14.9198 26.7815 15.0118 26.8117 15.2264C26.9323 15.9929 27.1434 18.0472 27.3243 19.0283C27.4148 19.4882 27.5052 19.6108 27.9877 19.6108H34.9532ZM26.1182 19.059C25.9071 17.1887 25.7865 15.809 25.696 15.2877C25.6658 15.0425 25.6357 14.9198 25.3643 14.9198H24.1883C24.0978 14.9198 24.0375 15.1344 24.0375 15.4717L23.8566 18.875C23.8265 19.7028 23.8868 19.6108 24.3089 19.6108H25.5452C26.1785 19.6108 26.2086 19.6415 26.1182 19.059Z" fill="#F6F6F6"/>
<path d="M32.9151 32.8986C32.9151 28.8299 36.1451 25.5 40.1998 25.5C44.2242 25.5 47.4844 28.8299 47.4844 32.9292C47.4844 36.9978 44.2239 40.329 40.1978 40.2972C36.1771 40.2961 32.9151 37.0002 32.9151 32.8986ZM4.11822 32.8986C4.11822 28.8299 7.34821 25.5 11.4028 25.5C15.4532 25.5 18.7187 28.8261 18.6875 32.9006C18.6864 36.9684 15.4568 40.2972 11.4028 40.2972C7.38123 40.2972 4.11822 37.0008 4.11822 32.8986Z" stroke="#878787"/>
<path d="M31.1875 30.7415L28.651 29.8325H24.5199L20.3574 31.3278" stroke="#878787"/>
<path d="M48.8541 28.809C49.1255 28.809 49.3969 28.6863 49.5778 28.5637C49.9397 28.2877 50 26.8467 50 26.3561V25.7736C49.9698 25.5283 49.9698 25.4363 49.6984 25.3443C49.5778 25.283 49.427 25.2524 49.3064 25.2524L49.3366 22.0943C49.3366 21.1439 49.0049 20.7453 48.1606 20.5307C45.507 19.8255 42.0695 19.2736 38.7827 18.967L34.3803 15.3491C33.4153 14.5519 32.2695 14 31.1237 14H23.4344C22.5901 14 22.5901 14.3986 22.379 15.1651C22.0473 16.6368 21.8664 19.1509 21.5649 19.3656C21.4744 19.4575 21.2935 19.5189 20.8713 19.5189L3.68365 19.4882C2.23627 19.4882 1.87442 19.6722 1.72365 20.9906C1.60303 22.125 1.66334 23.9953 1.60304 25.0991C1.3015 25.3137 0.969806 25.0377 0.999961 25.8349C1.03012 26.4788 0.939654 27.4599 1.09042 28.0731C1.23194 28.5665 2.25455 28.7842 3.12216 28.8649" stroke="#878787"/>
</svg>
