<svg width="52" height="40" viewBox="0 0 52 40" fill="none" xmlns="http://www.w3.org/2000/svg">
<path d="M5.74971 27.6725V23.3179C5.74971 23.0059 5.95599 22.7279 6.26273 22.6292L10.4943 21.2641C12.088 18.6521 14.2788 16.1664 19.1201 15.3456C19.129 15.3441 19.1381 15.3427 19.147 15.3412C28.0879 14.1452 34.8004 16.0967 39.1099 21.1437C42.3177 21.1886 45.5923 21.8375 47.5182 23.0306C48.5157 23.649 49.1075 24.7253 49.163 25.8705L49.25 27.6726C49.664 27.6726 50 27.9977 50 28.3983V31.3013C50 31.7019 49.664 32.027 49.25 32.027H46.25C45.8338 32.027 45.5008 31.6961 45.5001 31.2933C45.5001 31.2896 45.4993 31.2861 45.4993 31.2817C45.488 28.4853 43.1427 26.2209 40.25 26.2209C37.3504 26.2209 35 28.4954 35 31.3012C35.0539 31.7418 34.6947 32.0269 34.25 32.0269H20.7499C20.3337 32.0269 20.0006 31.696 19.9999 31.2932C19.9999 31.2896 19.9992 31.286 19.9992 31.2816C19.988 28.4852 17.6427 26.2209 14.7499 26.2209C11.8504 26.2209 9.49994 28.4953 9.49994 31.3011C9.55391 31.7417 9.19469 32.0269 8.74997 32.0269H5.74998C5.33601 32.0269 5 31.7017 5 31.3011V28.3981C4.99974 27.9976 5.33574 27.6725 5.74971 27.6725ZM25.9998 20.7779C25.9998 20.9781 26.1678 21.1408 26.3749 21.1408H36.1557C36.5021 21.1408 36.6596 20.7285 36.4039 20.5028C33.8014 18.2072 30.4917 16.8943 26.4131 16.5453C26.1934 16.5264 25.9998 16.6977 25.9998 16.9111V20.7779ZM16.9893 20.7814C16.9916 20.9803 17.1589 21.1407 17.3643 21.1407H24.1248C24.3318 21.1407 24.4999 20.9781 24.4999 20.7778V16.8151C24.4999 16.6141 24.3341 16.4487 24.1271 16.4487C22.6317 16.4472 21.0491 16.5524 19.3669 16.7775C18.5658 16.9139 17.8519 17.1012 17.2024 17.3312C17.0531 17.3842 16.9579 17.5243 16.9593 17.6781L16.9893 20.7814ZM13.075 21.1407H15.1142C15.3227 21.1407 15.4915 20.9759 15.4893 20.7742L15.4698 18.8074C15.4668 18.5077 15.1135 18.3451 14.8638 18.5222C14.053 19.0955 13.3787 19.7784 12.778 20.5536C12.5905 20.7952 12.7631 21.1407 13.075 21.1407Z" fill="#F6F6F6"/>
<path d="M18.3784 32.0271C18.3784 30.0273 16.7294 28.3784 14.7297 28.3784C12.73 28.3784 11.0811 29.9922 11.0811 32.0271C11.0811 34.0268 12.73 35.6757 14.7297 35.6757C16.7294 35.6757 18.3784 34.0268 18.3784 32.0271Z" stroke="#878787" stroke-miterlimit="10"/>
<path d="M43.9189 32.0271C43.9189 30.0273 42.27 28.3784 40.2702 28.3784C38.2705 28.3784 36.6216 29.9922 36.6216 32.0271C36.6216 34.0268 38.2705 35.6757 40.2702 35.6757C42.27 35.6757 43.9189 34.0268 43.9189 32.0271Z" stroke="#878787" stroke-miterlimit="10"/>
<path d="M47.4663 32.027H49.25C49.664 32.027 50 31.7019 50 31.3013V28.3983C50 27.9977 49.664 27.6726 49.25 27.6726L49.163 25.8705C49.1075 24.7253 48.5157 23.649 47.5182 23.0306C45.5923 21.8375 42.3177 21.1886 39.1099 21.1437C34.8004 16.0967 28.0879 14.1452 19.147 15.3412C19.1381 15.3427 19.129 15.3441 19.1201 15.3456C14.2788 16.1664 12.088 18.6521 10.4943 21.2641L6.26273 22.6292C5.95599 22.7279 5.74971 23.0059 5.74971 23.3179V27.6725C5.33574 27.6725 4.99974 27.9976 5 28.3981V31.3011C5 31.7017 5.33601 32.0269 5.74997 32.0269H7.24997M33.0338 32.0269H22.6351" stroke="#878787"/>
<path d="M11.9858 14.8726C11.9858 13.8904 11.2574 12.9566 10.1886 12.9007L10.1886 10.9745C10.1886 9.96153 9.41384 9 8.29004 9C7.40571 9 6.7375 9.59541 6.49288 10.3428C6.24826 9.59541 5.58006 9 4.69573 9C3.57193 9 2.79715 9.96153 2.79715 10.9745L2.79715 12.9007C1.72842 12.9566 0.999999 13.8904 0.999999 14.8726L0.999999 16.8217C0.999999 19.3056 2.46343 21.4945 4.59431 22.3328L4.59431 28.1528C4.59431 31.8515 7.38561 35 10.9858 35L11.9858 35L11.9858 34C11.9858 33.399 11.9916 33.1242 11.9957 32.9307C12.0011 32.6738 12.0035 32.5605 11.9852 32.0172L11.9526 31.0509L10.9858 31.0509C9.63058 31.0509 8.39146 29.8284 8.39146 28.1528L8.39146 22.3328C10.5223 21.4945 11.9858 19.3056 11.9858 16.8217L11.9858 14.8726Z" fill="#878787" stroke="white" stroke-width="2"/>
<path d="M11.0872 13.3981L10.6886 13.3981L10.6886 10.9745C10.6886 10.1987 10.1003 9.5 9.29004 9.5C8.4798 9.5 7.89146 10.1987 7.89146 10.9745L7.89146 13.3981L7.09431 13.3981L7.09431 10.9745C7.09431 10.1987 6.50597 9.5 5.69573 9.5C4.88549 9.5 4.29715 10.1987 4.29715 10.9745L4.29715 13.3981L3.89858 13.3981C3.08833 13.3981 2.5 14.0968 2.5 14.8726L2.5 16.8217C2.5 19.239 3.99891 21.3217 6.09431 21.9793L6.09431 28.1528C6.09431 31.6143 8.69917 34.5 11.9858 34.5L12.4858 34.5L12.4858 34C12.4858 33.3653 12.4919 33.0918 12.496 32.905C12.5014 32.6652 12.5035 32.5685 12.4855 32.0341L12.4692 31.5509L11.9858 31.5509C10.317 31.5509 8.89146 30.0655 8.89146 28.1528L8.89146 21.9793C10.9869 21.3217 12.4858 19.239 12.4858 16.8217L12.4858 14.8726C12.4858 14.0968 11.8974 13.3981 11.0872 13.3981Z" fill="#F6F6F6" stroke="#878787"/>
</svg>
